<svg width="28" height="28" fill="none" xmlns="http://www.w3.org/2000/svg"><path d="M8.333 7a1 1 0 1 0 2 0h-2Zm2-4.667a1 1 0 1 0-2 0h2ZM17.667 7a1 1 0 1 0 2 0h-2Zm2-4.667a1 1 0 1 0-2 0h2ZM10.333 7V2.333h-2V7h2Zm9.334 0V2.333h-2V7h2Z" fill="#FC0"/><path d="M3.5 10.5h21" stroke="#FC0" stroke-width="2" stroke-linecap="round" stroke-linejoin="round"/><path clip-rule="evenodd" d="M3.5 7v15.167A2.333 2.333 0 0 0 5.833 24.5h16.334a2.333 2.333 0 0 0 2.333-2.333V7a2.333 2.333 0 0 0-2.333-2.333H5.833A2.333 2.333 0 0 0 3.5 7Z" stroke="#FC0" stroke-width="2" stroke-linecap="round" stroke-linejoin="round"/><path d="M15.437 14.583c1.235 0 2.063 1.086 2.063 2.098 0 2.053-3.437 3.736-3.5 3.736M12.563 14.583c-1.235 0-2.063 1.086-2.063 2.098 0 2.053 3.437 3.736 3.5 3.736M14 15.208a1.896 1.896 0 0 1 1.437-.625M14 15.208a1.896 1.896 0 0 0-1.437-.625" stroke="#fff" stroke-width="2" stroke-linecap="round" stroke-linejoin="round"/></svg>