<svg width="41" height="38" fill="none" xmlns="http://www.w3.org/2000/svg"><path d="M4.032 15.648c5.116.827 9.872-2.785 13.289-6.235.406-.41.844-.822 1.095-1.357.117-.25.045-.828.045-.16 0 2.027-.246 4.286.418 6.213 1.16 3.369 4.792 4.71 7.914 5.438.85.198 1.715.358 2.551.616.256.078.942.16.34.319-1.782.466-3.512 1.167-5.172 1.96-4.114 1.968-7.907 4.166-11.425 7.136-1.387 1.172-2.944 2.457-3.771 4.127-.283.57-.597 1.133-.813 1.733-.157.437-.202-1.257-.203-1.3-.02-1.023-.214-1.962-.418-2.964a66.649 66.649 0 0 0-2.472-8.96C4.643 20.045 3.819 17.938 2 16.47" stroke="#D900AD" stroke-width="3" stroke-linecap="round"/><path opacity=".4" d="M25.038 2C26.532 10.162 30.862 15.264 39 15.264" stroke="#D900AD" stroke-width="3" stroke-linecap="round"/></svg>