<svg width="54" height="38" fill="none" xmlns="http://www.w3.org/2000/svg"><path d="m37.79 17.33-.978-3.583.977-4.04 3.128-2.67 2.866 1.954 1.238 3.388-1.303 3.714-2.736 2.541-3.193-1.303ZM45.802 0 44.5.195v4.366l-.065.065-2.606-3.258-4.17-.13-4.17 1.824-3.388 3.193-1.368 4.43-.587 4.561.848 5.408 3.518 3.974 5.277 1.043 3.91-2.15 2.54-3.389.848.13-.326 4.105-3.91 3.91-3.062.847-1.694-1.173-7.427-1.499.456 3.128 1.824 3.648 4.756 1.238 4.952.196 4.496-1.368 4.235-2.085 2.997-3.714.977-4.626-.326-4.821.326-4.822.26-4.821-.39-4.822L53.36 0h-7.558ZM9.578 20.394l-.913-3.78.978-4.169 3.127-1.89 2.671 1.239 1.173 3.583-1.173 3.91-2.606 2.214-3.257-1.107ZM7.558 4.887 3.583 8.406l-2.41 4.625L0 18.244l.847 4.69 2.736 3.845 4.3 2.215 4.822-.456 5.082-1.564 4.17-3.323 2.41-4.69 1.304-5.148-1.303-4.626-2.672-3.713-4.17-1.89-4.756-.195-5.212 1.498ZM1.303 31.73c.456-.13 7.297.456 7.297.456L18.7 30.688l6.124-2.28 2.411 6.58-6.385 1.238-6.32.325-8.274 1.108-4.952-.651V31.73Z" fill="#fff"/></svg>