<svg width="37" height="37" fill="none" xmlns="http://www.w3.org/2000/svg"><path d="M28.237 8.763H8.763v19.474h19.474V8.763Z" fill="#fff"/><path d="M28.237 37 37 28.237h-8.763V37Z" fill="#EA4335"/><path d="M37 8.763h-8.763v19.474H37V8.763Z" fill="#FBBC04"/><path d="M28.237 28.237H8.763V37h19.474v-8.763Z" fill="#34A853"/><path d="M0 28.237v5.842A2.92 2.92 0 0 0 2.921 37h5.842v-8.763H0Z" fill="#188038"/><path d="M37 8.763V2.921A2.92 2.92 0 0 0 34.079 0h-5.842v8.763H37Z" fill="#1967D2"/><path d="M28.237 0H2.92A2.92 2.92 0 0 0 0 2.921v25.316h8.763V8.763h19.474V0Z" fill="#4285F4"/><path d="M15.78 14.03v8.628h-1.8v-6.935c-.05.04-.16.09-.327.152-.163.059-.36.115-.59.17-.23.054-.467.091-.712.11V14.73c.245-.031.484-.084.718-.158.234-.077.434-.165.602-.262.171-.098.284-.191.339-.28h1.77Zm7.415 1.378h-3.412l-.31 2.25a.436.436 0 0 1 .123-.159 1.35 1.35 0 0 1 .292-.198c.129-.07.287-.127.474-.17.19-.047.41-.07.66-.07.779 0 1.37.253 1.776.76.409.502.613 1.16.613 1.974 0 .65-.113 1.2-.339 1.648a2.248 2.248 0 0 1-.987 1.016c-.436.226-.98.34-1.63.34-.53 0-.98-.079-1.35-.235a2.5 2.5 0 0 1-.893-.63 2.588 2.588 0 0 1-.497-.877 3.154 3.154 0 0 1-.158-.981v-.024h1.794v.024c.02.416.117.74.292.97.18.23.46.344.841.344.246 0 .45-.056.614-.17a1 1 0 0 0 .374-.513c.081-.234.122-.524.122-.87 0-.468-.082-.83-.245-1.087-.164-.261-.427-.392-.789-.392a1.251 1.251 0 0 0-.964.427c-.101.12-.173.24-.216.356l-1.723-.45.671-4.65h4.867v1.367Z" fill="#4285F4"/></svg>