<svg width="179" height="61" fill="none" xmlns="http://www.w3.org/2000/svg"><path fill-rule="evenodd" clip-rule="evenodd" d="M26.053 5C11.646 5 0 16.688 0 31.146 0 42.704 7.462 52.488 17.814 55.95c1.294.26 1.768-.562 1.768-1.254 0-.607-.042-2.684-.042-4.85-7.247 1.56-8.757-3.116-8.757-3.116-1.164-3.03-2.89-3.809-2.89-3.809-2.372-1.602.173-1.602.173-1.602 2.631.173 4.012 2.684 4.012 2.684 2.329 3.982 6.081 2.857 7.59 2.164.216-1.688.907-2.857 1.64-3.506-5.78-.606-11.861-2.857-11.861-12.9 0-2.857 1.034-5.195 2.673-7.012-.258-.65-1.164-3.334.26-6.927 0 0 2.2-.693 7.16 2.684a25.138 25.138 0 0 1 6.513-.866c2.2 0 4.442.303 6.513.866 4.96-3.377 7.16-2.684 7.16-2.684 1.424 3.593.517 6.277.259 6.927 1.682 1.817 2.674 4.155 2.674 7.012 0 10.043-6.081 12.25-11.905 12.9.95.823 1.768 2.38 1.768 4.848 0 3.507-.042 6.32-.042 7.186 0 .693.475 1.516 1.768 1.256C44.6 52.487 52.062 42.704 52.062 31.146 52.105 16.687 40.416 5 26.052 5Z" fill="#101112"/><path d="m128.14 42.64.974 3.215 2.83 1.724 3.48-.093 5.103-2.19-2.923-3.915-1.206.7-1.485-1.259-.139-3.029-.139-3.681 3.712-.84 1.113-4.939-4.5.513v-3.588l-1.392-1.632-2.645 2.33-2.737 1.958.139 2.33-3.155.605.882 3.822c.046.093.092.186.046.186l.093.42 1.902-.14-.185 4.147.232 3.355Zm10.485-14.307c0 .047 0 .047.047.093-.093.047-.186.047-.279.094l-.046-.14.278-.047Zm-2.505 2.517.093.093c-.047 0-.093.046-.093.046-.047 0-.047-.046-.047-.046-.046-.047 0-.094.047-.094Zm-2.83 12.209c0 .046.046.093.046.14l-.046.046c-.047 0-.047-.046-.093-.093 0-.047 0-.047.093-.093Zm-1.532-17.475h.047c0 .046-.047.14-.047.186h-.092c.046-.093.046-.14.092-.186Zm-1.623 4.054.046.046-.186.14-.046-.046c.093-.047.139-.093.186-.14Zm-.372.186c0 .093 0 .187.047.28h-.093v-.28h.046Zm-.788-2.516c.092 0 .139.047.232.047v.046h-.279c.047-.046.047-.046.047-.093Zm-.464 11.09c.232.513.232.513-.047.7.047-.233.047-.42.047-.7Zm-2.923-6.43s-.047 0 0 0l.046-1.258s.046 0 .046.046c-.046.373-.046.793-.092 1.212Zm1.16 2.89c-.232-.28-.186-.607 0-.886.232.28-.093.559 0 .885Zm43.102 9.599-7.006.978-3.433.56c-.093.186-.139.373-.232.559-.186-.14-.278-.326-.232-.513l-3.109.513-6.959 1.444-7.052.84-7.006.885-6.96 1.305-7.099.372-7.006 1.119-6.866 1.305-1.114 5.219 7.331-1.352 1.995-.419-.046-.047.092-.093v.14l2.181-.466a.356.356 0 0 1-.186-.093c.14-.047.279-.047.511-.093l-.139.14 2.551-.56 7.192-.373 7.099-1.165 7.052-1.304 7.052-1.445 7.099-.885 7.145-.746 7.052-1.398 4.64-1.491 1.253-3.682-5.8.746Zm-58.274 11.137v-.559c.325.326.325.373 0 .56Zm1.948-.28c-.046 0-.139-.093-.092-.14.046-.185.185-.232.371-.185 0 .233-.093.326-.279.326Zm1.16 1.026c-.046.047-.185.093-.278.046-.093-.046-.232-.186-.232-.233.046-.28-.186-.186-.325-.326.093-.093.186-.14.279-.233.185.14.324.326.464.466.092.093.092.233.092.28Zm1.114-.839c-.046-.046-.093-.093-.139-.093.046-.047.046-.093.093-.093.046 0 .092 0 .139.046 0 .047-.047.094-.093.14Zm.649.56c.093.232.14.419.186.605-.325-.233-.371-.373-.186-.606Zm2.924-.606c.092-.466.139-.98.231-1.492.232.56.093 1.026-.231 1.492Zm1.716-1.585h-.093c0-.093 0-.186-.046-.373.093.093.186.14.186.187 0 .093-.047.14-.047.186Zm28.905-2.237c-.092 0-.139-.046-.232-.046v-.094c.047 0 .14.047.186.047a.145.145 0 0 1 .046.093Zm2.367-2.004c-.418-.232-.464-.652-.557-1.025-.047-.233-.093-.373-.325-.466-.185-.093-.325-.186-.232-.466.325.047.557.094.882.14-.093.093-.186.14-.232.233.092.14.185.373.51.186v.094c-.093.14-.232.233-.371.42.139.279.232.558.325.885Zm1.02-.745v-.7c.279.374.279.374 0 .7Zm4.501-1.165c-.186-.187-.186-.326 0-.466a.8.8 0 0 1 0 .466Zm1.902-.606v-.14s.047 0 .139-.046a.625.625 0 0 1-.139.186Zm5.475 1.212s-.046 0-.093-.047c.093-.28.186-.606.511-.839-.047.42-.279.606-.418.886Zm4.872-.513c-.047-.046-.093-.093-.093-.14 0 0 .046-.046.093-.14.046.094.092.14.092.187 0 .047-.046.047-.092.093Zm-5.104-29.265 1.902-3.728 1.021-4.1-1.021-3.682-2.134-2.936-3.294-1.491-3.758-.187-4.083.886-3.341 2.796-2.041 3.541-.557 4.567.65 3.728 2.134 3.076 3.387 1.724 3.804-.373 1.114-.373v-.046h.046l.511-.14c0-.047 0-.14-.047-.186.047 0 .093-.047.186-.047 0 .047 0 .14.046.186l2.134-.699 3.341-2.516Zm2.088-8.341c.046 0 .093 0 .139.046-.046.047-.093.093-.139.093-.047 0-.093-.046-.139-.046.092-.047.092-.093.139-.093Zm-1.902-3.356c-.093.14-.186.233-.325.42-.047-.373-.047-.373.325-.42Zm-17.26 8.016v-.14h.186v.093c-.093.046-.14.046-.186.046Zm.232-.373c0-.047-.046-.14-.046-.187.046 0 .092 0 .092-.046 0 .046.047.14.047.186-.047.047-.093.047-.093.047Zm.418.14c-.14-.233-.14-.233.092-.7-.046.28-.046.466-.092.7Zm.649-3.402-.093-.047c0-.093.047-.14.047-.233.046 0 .092.047.139.047-.047.093-.047.14-.093.233Zm.093 4.427v-.28h.093c0 .093.046.187.046.28h-.139Zm.417-1.352c0-.186.093-.28.279-.233.046 0 .093.093.093.093-.047.187-.186.233-.372.14Zm.789 1.352c-.046 0-.093-.047-.093-.093 0-.047.047-.094.093-.094.047 0 .047.047.093.094l-.093.093Zm7.192-10.905c.092.093.139.233.232.326-.047 0-.093.047-.093.047-.093-.093-.139-.186-.232-.28.046-.046.046-.093.093-.093Zm-.14-.046c-.139.233-.231.42-.324.605-.047-.046-.093-.046-.139-.093.092-.14 0-.466.463-.512Zm-1.902-1.072c.047-.093.047-.187.047-.28.139.42.139.42-.232.606.092-.186.185-.233.185-.326Zm-.278 2.05.093.093-.093.094c0-.047-.047-.094-.047-.14l.047-.047Zm-.279-.233c0 .233.14.466-.232.56 0-.234-.092-.42.232-.56Zm.093 15.611v-.512h.093c.046.186.046.326.093.512h-.186Zm1.995.42c-.046-.047-.092-.093-.139-.187l.093-.093c.046.047.093.14.139.187l-.093.093Zm1.16-.326.093.093c-.046.326-.046.559-.046.839-.279-.187-.186-.513-.232-.746-.093-.047-.186-.14-.325-.186.278-.28.464-.56.371-.932-.046-.187-.046-.327-.278-.373-.232-.047-.279.14-.372.28 0 .046-.046.046-.046.093l-.417-.42c.464-.046.463-.046.603-.512.046.093.139.233.185.372.232-.093.418-.186.65-.28-.139.56-.232 1.12-.371 1.725.046 0 .092 0 .185.047Zm-.325-2.89c0-.14-.046-.233-.046-.419h.603c-.232.186-.371.28-.557.42Zm1.068 2.936-.418.14c0-.047-.046-.047-.046-.093l.417-.42c0 .187.093.373.047.373Zm-.325-2.61h.093c.046.094.046.14.092.234-.046 0-.046.046-.092.046a.656.656 0 0 1-.093-.28Zm.371 1.771h-.232v-.093c.093 0 .139.047.232.047v.046Zm.557.14c-.093-.046-.186-.093-.325-.186.139-.093.232-.14.418-.233-.047.14-.093.28-.093.42Zm-1.949-3.635-2.505-.885-.743-3.03.743-3.308 2.459-1.677 2.134 1.165 1.392 3.122-.928 3.122-2.552 1.491Zm3.062 4.148h-.139c-.325-.373 0-.653.046-.979h.093c.047.326 0 .653 0 .979Zm.511-.466c-.093-.047-.14-.14-.232-.187l.092-.093c.093.047.14.14.232.187 0 .046-.046.046-.092.093Zm-.047-.792c.047.093.093.186.139.326-.51-.28-.51-.373-.417-.886.139 0 .278.047.464.047-.047.14-.093.233-.139.373.046.046.139.093.185.14-.093-.047-.139-.047-.232 0Zm8.12 1.258-4.083 1.444-3.387 2.61-.418 3.402 1.207 3.681 4.082 1.631 4.594-.093 1.206 1.025v1.398l-2.413 1.026-3.201-.42-.789-1.817-4.593-.187v3.216l1.809 2.61 3.016 1.397 3.387.327 3.155-1.119 3.016-1.491 1.856-2.982.185-4.055-1.623-2.19-3.248-1.118-4.965-.094-1.02-1.817 1.856-1.77h3.201l.789 1.63 4.593-.186-.789-4.24-2.784-1.818h-4.639Zm-4.501 5.312c-.046-.046-.139-.093-.185-.14h-.047c-.046.047-.139.047-.185.094v-.14h.232c0-.047-.047-.093-.047-.093l.047-.047c.092.093.185.14.232.233 0 .047-.047.093-.047.093Zm4.408 14.773c-.046 0-.047 0-.093-.047.046-.14.093-.326.139-.466.047 0 .047 0 .093.047-.093.14-.093.326-.139.466Zm7.052-8.295c.047 0 .093 0 .139.046-.046.28-.092.513-.139.886-.371-.42.139-.606 0-.932Zm-1.252-.373h.092l-.092.466h-.093c0-.14.046-.28.093-.466Zm-3.202-1.77c0 .232 0 .232-.232.279.093-.094.139-.187.232-.28Zm-59.156-11.185.232 3.821 2.32 3.03 3.48 1.444 3.804.186 3.48-1.398 3.062-2.097 2.042-3.169.603-3.541-3.202.233-3.015.978-.743 2.47-.278.187c.093.046.186.046.325.093-.139.186-.279.326-.418.512-.139-.093-.278-.233-.325-.326l-1.392.839-2.691-1.445-.278-3.029.742-3.122 2.227-2.097 2.459.652.372 1.818 3.155-.326 3.34-.42-1.392-4.473-1.856-1.165a.442.442 0 0 1-.464-.094c.093 0 .186 0 .279-.046l-.232-.14c0 .093-.047.233-.047.326-.371.187-.649.093-.881-.14v-.093c.232.047.418.093.603.14.186 0 .139-.186.139-.326l-1.113-.7-4.362.14-3.943 1.166-3.155 2.656-2.552 3.355-.325 4.101Zm16.61 2.423c.325.14.65.233 1.021.373-.139.28-.418.233-.603.28-.232-.187-.418-.373-.65-.56 0-.093.047-.14.232-.093Zm-4.547.42c.186.186.14.326.093.466l-.139.419c-.325-.373-.093-.606.046-.885Zm-1.16 4.054c-.046-.326-.092-.7-.139-1.025.279.326.232.699.139 1.025Zm-.232-3.076c0 .14.047.28.047.466-.186-.186-.139-.326-.047-.466Zm-1.067 1.818c0 .046.047.093.047.093l-.047.047c-.046 0-.046-.047-.092-.094 0-.046.046-.046.092-.046Zm3.805-11.417-.047-.047.047-.047.046.047-.046.046Zm.093-.653-.047-.14c.093-.046.139-.093.232-.14.139.373-.139.233-.185.28Zm.185-5.08c.139.28 0 .327-.232.327-.046-.28.093-.28.232-.326Zm-.325.746c.232-.046.464-.046.789-.093a6.669 6.669 0 0 0-.557.606c-.232-.14-.232-.326-.232-.513Zm.047 3.262c0 .047.046.14.046.14 0 .047-.093.047-.139.047 0 0-.046-.047-.046-.094.046 0 .092-.046.139-.093Zm-.232-2.936v.094c-.093 0-.186.046-.279.046v-.186c.093 0 .186 0 .279.046Zm-1.114-.419c.186.233.14.326-.092.466.046-.186.046-.28.092-.466Zm-.417 4.567h.093l-.047.186-.093-.093c0-.046 0-.046.047-.093Zm-3.712-.979c-.046-.186-.093-.233-.093-.326 0-.046.047-.093.047-.186.046 0 .092 0 .092.046.047.14 0 .233-.046.466Zm1.438.84h.047c0 .046-.047.139-.047.186h-.092c.046-.047.046-.14.092-.187Zm-1.067-3.869c-.046-.186-.093-.326-.139-.512.371.093.418.14.139.512Zm.186.653-.139.233c-.047 0-.047-.047-.093-.047a1.02 1.02 0 0 1 .139-.233.143.143 0 0 0 .093.047Zm-.603.326c.324.186.603.326.835.42-.047.186-.047.419-.093.605 0 .047-.046.14-.093.14-.185.046-.139.233-.093.326.186.326.047.652-.046.979-.325-.42-.046-.979-.278-1.445.092-.14.185-.233.278-.373-.232-.186-.418.047-.603.047a2.85 2.85 0 0 0 .093-.7Zm-.279 2.89h.047c0 .046 0 .139-.047.186h-.046c.046-.094.046-.14.046-.187Zm-2.366 10.205c-.232.046-.418.093-.603.14l-.047-.094c.232-.14.418-.28.65-.466v.42Zm-.51-2.517c.139.373-.14.513-.186.746-.046 0-.093-.047-.139-.047.139-.186.232-.42.325-.699Zm-2.088 1.538c0 .093.046.14.046.233 0 0-.093.047-.139.047 0-.094-.046-.187-.046-.28.092.047.139 0 .139 0Zm-1.949-.792c.139.093.139.186.046.326 0 .047-.092.047-.139 0-.046-.14-.046-.233.093-.326ZM134.96 1.072l.371 4.846-3.944 1.258 1.81 4.008 1.902-.28-.186 4.334.232 4.38.975 3.216 2.83 1.724 3.48-.093 4.036-.885c-.093 0-.185-.047-.278-.233.232.093.371.14.51.186l1.578-.326-2.506-4.846-2.32.699-1.484-1.259-.139-4.054.51-3.868 3.758-1.211.835-2.377 1.995-2.843-6.727 1.165V0l-3.48.792-3.758.28Zm-1.995 6.477-.279.28c-.092-.28.047-.326.279-.28Zm0 2.097c0 .047-.093 0-.186 0 0 0-.046-.046-.046-.093.185-.047.093-.28.232-.42.046.047.093.047.139.094l-.139.42Zm.185-2.423c-.046-.047-.046-.093-.046-.14 0 0 .046-.046.093-.046 0 .046.046.093.093.14-.047 0-.093.046-.14.046Zm13.27 12.769v.28h-.047c0-.047-.046-.094-.046-.14-.046 0 0-.047.093-.14ZM138.254.885c0 .047.046.094.046.187 0 0-.046.046-.092.046-.047-.046-.047-.093-.093-.14.046-.046.093-.093.139-.093Zm-2.552 8.808-.185-.14.092-.093.186.186c-.046 0-.046.047-.093.047Zm.603.14h-.092c0-.094 0-.187-.047-.28h.139v.28Zm-.417-6.99c.278-.14.278-.14.464.186-.139-.047-.279-.14-.464-.186Zm.603-.979c-.046-.047-.093-.093-.093-.14 0-.046.047-.046.093-.14.046.094.093.14.093.187 0 .046-.047.093-.093.093Zm.325 6.105-.047-.047c.047 0 .047-.047.093 0l.047.047h-.093Zm.51-5.592c-.232-.14-.139-.28.046-.466.186.093.372.14.279.372 0 .047-.232.14-.325.094Zm.093 2.143c.046-.046.093-.046.139-.093.046.093.093.233.139.326-.046 0-.046.047-.093.047 0-.093-.092-.187-.185-.28Zm.232 18.221c.232-.093.371-.186.603-.28-.093.327-.278.373-.603.28Zm.371-15.332c.139-.14.186-.233.325-.372.046.233.093.372.093.605-.093-.093-.186-.14-.418-.233Zm.696-3.541-.093-.093c.047-.047.093-.047.139-.094l.093.094c-.046.046-.093.046-.139.093Zm1.438 3.728v.233h-.093l-.046-.233h.139Zm-.417 15.937c-.047-.046-.093-.093-.186-.14l.047-.046c.046.046.092.093.139.093.046 0 .046.047 0 .093Zm-.093-.699c-.046 0-.139.047-.186.047v-.093c.047 0 .14-.047.186-.047-.046 0 0 .093 0 .093Zm-.325-19.805s.047 0 .093-.047l.046.047c-.046 0-.092.047-.092.047-.047 0-.047-.047-.047-.047Zm-.789-1.91c.186.14.325.279.511.419-.371.186-.511.093-.511-.42 0-.046-.046-.14-.092-.28.139.047.185.094.371.14-.139.094-.186.14-.279.14Zm-34.148 39.05-.324-3.867.092-3.868-3.479.513-3.573.605v3.449l-.093.046-2.041-2.563-3.294-.14-3.341 1.445-2.691 2.563-1.114 3.542-.463 3.681.185 1.165.046-.046v.14l.465 3.028 2.087 2.33c0-.046.047-.093.093-.186.093.187.14.28.186.42h-.047l.51.559 4.223.839 3.108-1.678 1.995-2.703.65.093-.278 3.262-3.063 3.122-2.923-.745-3.294.745-3.387.373 1.763 3.542 3.758.979 3.944.186 3.573-1.072 3.387-1.677 2.366-2.983.789-3.681-.279-3.868.232-3.868.232-3.681Zm-18.79 7.037c.046-.046.046-.093.092-.093 0 0 .047.047.14.093-.14-.046-.186 0-.232 0Zm.788.047c-.093 0-.185-.047-.232-.047v-.093h.232v.14Zm.464-.233c0-.233.14-.28.325-.42-.046.233-.093.42-.325.42Zm1.207-4.054c-.093-.233-.093-.233.139-.513-.047.186-.093.326-.14.513Zm9 16.217c-.278-.14-.463.046-.602.186a3.457 3.457 0 0 1-.557-.326c.464-.28.928-.14 1.392-.047-.093.093-.186.187-.232.187Zm-.927-20.458c.232.28.232.326-.279.56.093-.234.186-.374.279-.56Zm-.836.466h.093c0 .093-.046.186-.046.28h-.047v-.28Zm-.603-3.076c0 .233-.092.327-.232.28-.092-.047-.092-.14-.185-.28h.417Zm-6.17 1.492c0-.28.046-.373.278-.28-.046.093-.046.14-.093.186-.046 0-.093 0-.185.094Zm.37.932c-.046-.047-.092-.094-.185-.14l.093-.093c.046 0 .093.046.186.093a.67.67 0 0 0-.093.14Zm.65 4.52c-.046-.047-.093-.14-.139-.187.047 0 .047-.046.093-.046.046.046.093.14.14.186 0 0-.047 0-.094.047Zm0-1.165c.047.093.047.233.093.42-.185-.14-.278-.234-.093-.42Zm.232 1.072v-.233h.093c0 .093.047.14.047.233h-.14Zm1.578 8.574c-.047 0-.047-.047-.093-.047.093-.14.186-.28.232-.372.046 0 .046.046.093.046l-.232.373Zm5.15-5.22-2.18 2.051-2.553-1.072-.742-2.889.789-3.215 2.459-2.144 2.273 1.585.975 2.702-1.021 2.983Zm.835-10.205c-.093-.28.046-.373.278-.42.047.28.047.28-.278.42Zm.232-.839c-.186-.093-.371-.186-.325-.419.047-.093.232-.14.371-.233.047.047.047.093.093.093-.046.233-.093.373-.139.56Zm1.067-.093-.093-.186a.351.351 0 0 1 .186-.093l.093.093-.186.186Zm1.531 5.686h-.046c0-.047-.047-.14-.047-.187h.093v.187Zm-.046-.653c0-.046 0-.093.046-.14h.093c0 .047.046.047.046.094-.092 0-.139.046-.185.046Zm1.67-4.8v-.093c.093-.047.186-.047.232-.093 0 .047 0 .093.046.14-.092.046-.185.046-.278.046Zm1.578 1.119c0-.047-.047-.093-.047-.187 0-.046 0-.093.047-.186h.092v.326c-.046.047-.092.047-.092.047Zm20.878-1.678-.742-1.77a3.459 3.459 0 0 0-.557.325v-.28c.139-.092.278-.232.51-.185l-.649-1.585-3.573-1.491-4.593-.792-4.129.838-2.831 3.775-.371 4.101 2.367-.373 3.572-.839 1.206-1.957 2.274.14.51 1.305.186.046-4.64 2.424-3.572 1.165-2.552 2.749-.835 3.542 1.763 3.914 4.361.606 3.341-1.212 2.227-2.61v-.186l.092.093-.092.094.139 2.47 3.248-.327 3.201-.792-.046-4.427.278-4.427-.093-4.334Zm-13.733 12.396c-.047-.093-.047-.187-.093-.28.278-.046.185.14.232.233a.36.36 0 0 1-.139.047Zm1.252.093h-.696c0-.28 0-.28.232-.512.186.14.325.232.511.372 0 .047-.047.093-.047.14Zm2.599-1.305-2.181-1.584 2.32-2.656 2.598-.793.418 1.445-3.155 3.588Zm4.407-10.764c0-.047 0-.094-.046-.14h.093s.046.046.046.093c-.046 0-.093.047-.093.047Zm3.295 4.893c-.047-.233-.093-.42-.14-.653.279-.046.279-.046.372.466-.047.047-.14.093-.232.187Zm.603-4.148c-.186-.047-.325-.14-.511-.186.093-.326.325-.233.557-.28 0 .187-.046.28-.046.466Zm.788-.046c-.139 0-.232 0-.417-.047.139-.187.278-.187.417.047Zm-.046 10.391c-.139.187-.232.327-.371.467-.139-.42-.139-.42.371-.467Zm-.093 1.305c0-.186.047-.326.047-.512.232.373.232.373-.047.512Zm.279-2.097c-.14-.14-.232-.14-.232-.233-.093-.373-.093-.745.185-1.118.093.466 0 .885.047 1.351Zm-.093-2.05c0-.187.046-.42.046-.653.139.373.139.373-.046.653Zm.232-1.212c-.093-.14-.139-.28-.232-.42.046 0 .046-.046.093-.046.092.14.139.28.232.466h-.093Zm22.177 3.169 3.805-.373 3.99-1.258 3.294-2.61 1.903-3.728 1.02-4.1-1.02-3.682-2.135-2.936-3.155-1.398c-.046.093-.046.14-.092.233-.047 0-.047-.046-.093-.046.046-.094.046-.14.093-.233l-.047-.047-3.758-.186-4.083 1.165-3.155 2.796-1.902 3.681-.325 1.538c0 .046.046.093.046.14-.046 0-.046 0-.092.046l-.511 2.424.65 3.728 2.134 3.075 3.433 1.771Zm8.862-11.324c-.046 0-.092-.047-.139-.047a.656.656 0 0 0 .093-.28c.046 0 .046.047.093.047 0 .094 0 .187-.047.28Zm.975 2.19c0-.046-.047-.093-.047-.14.139-.046.232-.093.418-.14-.047.327-.232.234-.371.28Zm0-.978c-.093-.466-.093-.466.371-.746.046.14.093.233.185.42-.185.093-.371.233-.556.326Zm2.319 1.072c-.139-.094-.278-.14-.464-.28.279-.047.464-.047.464.28Zm-.185-4.94.093.047c-.047.046-.047.093-.093.186-.047 0-.047 0-.093-.047a.357.357 0 0 0 .093-.186Zm-.696 2.796c-.093-.233-.139-.42-.186-.56l.372-.372c.092.233.139.466.278.792-.186.047-.325.093-.464.14Zm.325-3.961-.139.699h-.14c.14-.233-.046-.513.279-.7Zm-.371 1.118c.092.373.139.7.232 1.026-.511-.28-.511-.28-.232-1.026Zm-.789.84c-.232 0-.325-.094-.418-.327.325-.093.325-.093.418.326Zm-.557-1.912c.046-.046.093-.046.139-.046h.047c.046-.047.139-.093.185-.186 0 .046.047.046.047.093-.093.046-.186.046-.232.093v.14c-.047.046-.093.046-.14.046-.092-.046-.092-.093-.046-.14Zm.186 2.517c.278.233.464.093.696 0 .092-.047.185-.093.324-.14v.093c-.139.187-.278.373-.464.606-.324-.093-.649-.14-1.02-.233.139-.373.278-.466.464-.326Zm-.882.792c-.278-.093-.232-.373-.371-.56.325.14.325.14.371.56Zm-.418-1.724.047.046c-.047.094-.093.14-.139.233l-.047-.046.139-.233Zm-7.794 11.37-.232-.233.046-.046c.093.046.139.14.232.186l-.046.093Zm1.253-.792-.093-.093c.046-.047.093-.047.093-.093l.046.046c0 .094 0 .094-.046.14Zm3.943-1.165-.093-.093c.093-.047.14-.093.232-.14l.047.047a.365.365 0 0 0-.186.186Zm1.021-7.968c.046-.047.046-.187.046-.28 0-.233.047-.42.047-.7.371.28.417.56.278.886l-.278.84h-.139c-.047-.28-.279-.514.046-.746Zm-.51-4.52c.046 0 .046.046.139.092-.047.047-.093.094-.139.094-.047 0-.047-.047-.093-.094a.1.1 0 0 1 .093-.093Zm-.14 1.584c.047-.047.093-.047.14-.047 0 .047.046.047.046.093l-.139.14-.047-.047c-.046-.046-.046-.093 0-.14Zm.047.745c-.093.28-.139.466-.186.746-.371-.466-.371-.56.186-.746Zm-.371-3.588c-.093.186-.14.326-.232.56-.093-.373-.093-.373.232-.56Zm-.232 1.631-.186.186-.093-.093a.802.802 0 0 0 .232-.186c0 .046 0 .093.047.093Zm-.371-3.309c.092 0 .139.047.232.047v.093c-.093-.046-.14-.046-.232-.093v-.047Zm-.325 3.356c.046 0 .046.046.093.093-.047.046-.093.046-.093.046-.047 0-.047-.046-.139-.093.046 0 .092-.046.139-.046Zm.185.652v.14c-.139 0-.324.233-.464-.093.14 0 .279-.047.464-.047Zm-4.083 2.377 2.459-2.004 2.135 1.491.881 2.703h.139c0 .14.047.28.047.373-.047 0-.093 0-.139.046l-.047-.233-.093.7h.14c0 .186 0 .372.046.605-.093 0-.186-.046-.232-.046l-.278 1.817-2.506 2.283-2.691-.885-.557-3.495.696-3.355Zm-1.438-.466c-.185.093-.325.14-.464.186.186-.233.186-.233.464-.186Zm-2.691-1.864c-.046.046-.046.093-.093.093 0 0-.046-.047-.139-.093h.232Zm.186 2.423c-.14.14-.232.28-.325.42-.093-.14-.186-.234-.325-.42h.65Zm-2.135-.14.186.187-.093.093a.36.36 0 0 1-.185-.187c0-.046.046-.093.092-.093Zm-.185 1.864c.232.093.325.093.51.186-.278.187-.325 0-.51-.186Zm1.16-1.957c0 .047-.047.047-.093.093-.046 0-.046-.046-.093-.046.047-.094.047-.14.093-.233.046 0 .093 0 .093.046v.14Zm-37.721-21.157-3.758-.186-4.083 1.165-3.155 2.796L91.58 18.5l-.882 4.101.65 3.728 2.134 3.076 3.387 1.724 3.805-.373 3.99-1.258 3.294-2.61 1.902-3.728 1.021-4.1-1.021-3.682-2.134-2.936-3.248-1.398ZM92.924 21.25c-.093-.093-.185-.14-.325-.28.279 0 .279 0 .325.28.093-.047.232-.047.371-.093-.139.233-.139.233-.37.093Zm.186-3.915c-.046-.046-.046-.093-.093-.14.093-.046.14-.093.232-.14 0 0 .047.094.093.094-.093.093-.186.14-.232.186Zm.51-.046c.186 0 .325 0 .464-.047-.093.28-.093.28-.464.047Zm2.134.978-.139-.28.093-.046c.046.093.046.233.093.326 0-.046 0-.046-.047 0Zm7.47-3.401v.466h-.092v-.466h.092Zm-3.619-.28c.047 0 .093.046.093.046 0 .047-.046.047-.093.094-.046-.047-.092-.047-.139-.094.093 0 .14-.046.14-.046Zm3.202 8.854-2.042 1.77-2.505-.885-.742-3.029.742-3.308 2.459-1.538 2.134.979.928 2.842-.974 3.169Z" fill="#101112"/></svg>