<svg width="28" height="28" viewBox="0 0 28 28" fill="none" xmlns="http://www.w3.org/2000/svg">
<path d="M8.33325 7.00004C8.33325 7.55233 8.78097 8.00004 9.33325 8.00004C9.88553 8.00004 10.3332 7.55233 10.3332 7.00004H8.33325ZM10.3332 2.33337C10.3332 1.78109 9.88553 1.33337 9.33325 1.33337C8.78097 1.33337 8.33325 1.78109 8.33325 2.33337H10.3332ZM17.6666 7.00004C17.6666 7.55233 18.1143 8.00004 18.6666 8.00004C19.2189 8.00004 19.6666 7.55233 19.6666 7.00004H17.6666ZM19.6666 2.33337C19.6666 1.78109 19.2189 1.33337 18.6666 1.33337C18.1143 1.33337 17.6666 1.78109 17.6666 2.33337H19.6666ZM10.3332 7.00004V2.33337H8.33325V7.00004H10.3332ZM19.6666 7.00004V2.33337H17.6666V7.00004H19.6666Z" fill="#FFCC00"/>
<path d="M3.5 10.5001H24.5" stroke="#FFCC00" stroke-width="2" stroke-linecap="round" stroke-linejoin="round"/>
<path fill-rule="evenodd" clip-rule="evenodd" d="M3.5 7.00008V22.1667C3.5 23.4559 4.54417 24.5001 5.83333 24.5001H22.1667C23.4558 24.5001 24.5 23.4559 24.5 22.1667V7.00008C24.5 5.71091 23.4558 4.66675 22.1667 4.66675H5.83333C4.54417 4.66675 3.5 5.71091 3.5 7.00008Z" stroke="#FFCC00" stroke-width="2" stroke-linecap="round" stroke-linejoin="round"/>
<path d="M15.4373 14.5834C16.6717 14.5834 17.5 15.6695 17.5 16.681C17.5 18.7344 14.063 20.4167 14 20.4167" stroke="white" stroke-width="2" stroke-linecap="round" stroke-linejoin="round"/>
<path d="M12.5627 14.5834C11.3283 14.5834 10.5 15.6695 10.5 16.681C10.5 18.7344 13.937 20.4167 14 20.4167" stroke="white" stroke-width="2" stroke-linecap="round" stroke-linejoin="round"/>
<path d="M14 15.2076C14.2683 14.9136 14.7315 14.5834 15.4373 14.5834" stroke="white" stroke-width="2" stroke-linecap="round" stroke-linejoin="round"/>
<path d="M14.0001 15.2076C13.7317 14.9136 13.2686 14.5834 12.5627 14.5834" stroke="white" stroke-width="2" stroke-linecap="round" stroke-linejoin="round"/>
</svg>
