<svg width="41" height="38" viewBox="0 0 41 38" fill="none" xmlns="http://www.w3.org/2000/svg">
<path d="M4.0322 15.6483C9.14826 16.4748 13.9039 12.8626 17.3206 9.41283C17.7266 9.00281 18.1649 8.59077 18.4157 8.0563C18.5332 7.80581 18.4609 7.22835 18.4609 7.89671C18.4609 9.92263 18.2146 12.1819 18.8786 14.1094C20.0389 17.4777 23.6711 18.8195 26.7929 19.5469C27.6437 19.7451 28.5083 19.9049 29.3444 20.1625C29.5998 20.2411 30.2864 20.3237 29.6831 20.4817C27.9024 20.9478 26.1717 21.6487 24.5123 22.4424C20.3982 24.41 16.6047 26.6085 13.0868 29.5784C11.6996 30.7495 10.143 32.0348 9.31593 33.705C9.0335 34.2753 8.71903 34.838 8.50305 35.4377C8.34556 35.875 8.30062 34.1807 8.29983 34.1381C8.28088 33.1146 8.08564 32.1762 7.8821 31.1743C7.26258 28.1249 6.44549 25.1464 5.40959 22.2144C4.64321 20.0452 3.81872 17.9381 2 16.4691" stroke="#D900AD" stroke-width="3" stroke-linecap="round"/>
<path opacity="0.4" d="M25.0381 2.00024C26.5323 10.1623 30.8619 15.2644 39.0003 15.2644" stroke="#D900AD" stroke-width="3" stroke-linecap="round"/>
</svg>
