<svg width="154" height="51" viewBox="0 0 154 51" fill="none" xmlns="http://www.w3.org/2000/svg">
<path d="M2 20.3438C11.1544 14.1907 24.8342 4.62054 36.6272 4.62054C40.7956 4.62054 44.4862 11.3813 46.6022 14.0836C48.91 17.0309 42.0977 23.6484 44.6072 19.0335C46.4213 15.6973 52.4772 12.2441 55.1521 15.7578C58.0695 19.59 57.1471 24.0448 57.1471 28.8605C57.1471 31.2627 57.1471 33.6648 57.1471 36.067C57.1471 39.5332 56.3735 39.6234 58.8571 37.0861C82.2845 13.1512 119.34 2 152.051 2" stroke="#FFCC00" stroke-width="3" stroke-linecap="round"/>
<path opacity="0.5" d="M73.8193 49.1697C88.6472 37.0505 106.658 27.6794 125.119 22.9644" stroke="#FFCC00" stroke-width="3" stroke-linecap="round"/>
</svg>
