<svg width="35" height="24" viewBox="0 0 35 24" fill="none" xmlns="http://www.w3.org/2000/svg">
<path d="M1.08398 9.32715C1.67084 12.3788 2.96288 16.0033 6.70617 15.8292C11.8978 15.5877 13.5676 10.1733 10.2683 6.40877C4.4768 -0.199516 -1.07322 10.7754 4.5603 13.1897" stroke="#D900AD" stroke-width="2" stroke-linecap="round"/>
<path d="M12.6719 4.69214C13.2773 7.29555 14.2286 9.73225 16.9207 10.6577C20.1337 11.7621 22.0087 10.4256 22.2854 6.96676C22.6262 2.70683 21.0467 0.946585 16.6203 1.00123C13.3831 1.0412 12.3366 4.03859 13.4444 6.62342" stroke="#D900AD" stroke-width="2" stroke-linecap="round"/>
<path d="M4.56055 22.0737C11.3378 24.431 21.1171 21.9652 26.9635 18.3185C30.437 16.1518 33.9161 12.0992 33.9161 7.78223" stroke="#D900AD" stroke-width="2" stroke-linecap="round"/>
</svg>
