<svg width="54" height="38" viewBox="0 0 54 38" fill="none" xmlns="http://www.w3.org/2000/svg">
<path d="M37.7892 17.3309L36.8119 13.7474L37.7892 9.70791L40.9166 7.03661L43.7834 8.99122L45.0213 12.3792L43.7182 16.093L40.9818 18.634L37.7892 17.3309ZM45.8032 0L44.5001 0.195461V4.56076L44.4349 4.62592L41.8288 1.36823L37.6589 1.23792L33.4891 3.06223L30.1011 6.25476L28.7329 10.6852L28.1465 15.246L28.9935 20.6537L32.5118 24.6281L37.7892 25.6706L41.6985 23.5205L44.2395 20.1325L45.0865 20.2628L44.7607 24.3675L40.8515 28.2767L37.7892 29.1237L36.0952 27.951L28.6677 26.4524L29.1238 29.5798L30.9481 33.2284L35.7043 34.4663L40.656 34.6618L45.1516 33.2936L49.3866 31.2087L52.3837 27.4949L53.361 22.869L53.0352 18.0476L53.361 13.2262L53.6216 8.40484L53.2307 3.58346L53.361 0L45.8032 0Z" fill="white"/>
<path d="M9.5776 20.3938L8.66545 16.6149L9.64276 12.445L12.7701 10.5556L15.4414 11.7935L16.6142 15.377L15.4414 19.2862L12.8353 21.5014L9.5776 20.3938ZM7.55784 4.88721L3.58346 8.40551L1.17277 13.0314L0 18.2437L0.846999 22.9348L3.58346 26.7789L7.88361 28.9941L12.705 28.538L17.787 26.9743L21.9568 23.6515L24.3675 18.9604L25.6706 13.8133L24.3675 9.18736L21.6962 5.47359L17.5264 3.58413L12.7701 3.38867L7.55784 4.88721Z" fill="white"/>
<path d="M1.30298 31.7301C1.75905 31.5998 8.6002 32.1861 8.6002 32.1861L18.699 30.6876L24.8235 28.4072L27.2342 34.9878L20.8491 36.2257L14.5292 36.5514L6.25466 37.6591L1.30298 37.0075L1.30298 31.7301Z" fill="white"/>
</svg>
