<svg width="37" height="37" viewBox="0 0 37 37" fill="none" xmlns="http://www.w3.org/2000/svg">
<path d="M28.2369 8.76318H8.76318V28.2369H28.2369V8.76318Z" fill="white"/>
<path d="M28.2368 37L37 28.2368H28.2368V37Z" fill="#EA4335"/>
<path d="M37 8.76318H28.2368V28.2369H37V8.76318Z" fill="#FBBC04"/>
<path d="M28.2369 28.2368H8.76318V37H28.2369V28.2368Z" fill="#34A853"/>
<path d="M0 28.2368V34.0789C0 35.6928 1.30717 37 2.92105 37H8.76316V28.2368H0Z" fill="#188038"/>
<path d="M37 8.76316V2.92105C37 1.30717 35.6928 0 34.0789 0H28.2368V8.76316H37Z" fill="#1967D2"/>
<path d="M28.2368 0H2.92105C1.30717 0 0 1.30717 0 2.92105V28.2368H8.76316V8.76316H28.2368V0Z" fill="#4285F4"/>
<path d="M15.7799 14.0291V22.6579H13.9805V15.7233C13.9299 15.7623 13.8208 15.8129 13.6534 15.8752C13.4898 15.9336 13.2931 15.9901 13.0633 16.0446C12.8335 16.0992 12.5959 16.1362 12.3506 16.1556V14.7302C12.5959 14.699 12.8355 14.6464 13.0691 14.5724C13.3028 14.4945 13.5034 14.4069 13.6709 14.3095C13.8423 14.2122 13.9552 14.1187 14.0097 14.0291H15.7799ZM23.195 15.4078H19.7832L19.4736 17.6571C19.4852 17.6181 19.5261 17.5655 19.5962 17.4993C19.6663 17.4331 19.7637 17.3669 19.8883 17.3007C20.0169 17.2306 20.1746 17.1741 20.3616 17.1313C20.5524 17.0845 20.7725 17.0612 21.0217 17.0612C21.8007 17.0612 22.3927 17.3143 22.7977 17.8206C23.2067 18.3231 23.4111 18.9813 23.4111 19.7953C23.4111 20.4457 23.2982 20.9948 23.0723 21.4427C22.8503 21.8906 22.5212 22.2295 22.085 22.4593C21.6488 22.6852 21.1055 22.7981 20.455 22.7981C19.9253 22.7981 19.4755 22.7202 19.1055 22.5644C18.7394 22.4047 18.4415 22.1944 18.2117 21.9335C17.9858 21.6686 17.8202 21.3765 17.7151 21.0572C17.6099 20.7339 17.5573 20.4067 17.5573 20.0757C17.5573 20.0679 17.5573 20.064 17.5573 20.064C17.5573 20.0601 17.5573 20.0562 17.5573 20.0523H19.3509C19.3509 20.0562 19.3509 20.0601 19.3509 20.064C19.3509 20.064 19.3509 20.0679 19.3509 20.0757C19.3703 20.4924 19.4677 20.8157 19.643 21.0455C19.8221 21.2753 20.1026 21.3902 20.4842 21.3902C20.7296 21.3902 20.9341 21.3337 21.0977 21.2207C21.2651 21.1078 21.3898 20.9364 21.4716 20.7066C21.5533 20.473 21.5942 20.1828 21.5942 19.8362C21.5942 19.3688 21.5125 19.0066 21.3489 18.7495C21.1853 18.4886 20.9224 18.3581 20.5602 18.3581C20.346 18.3581 20.1571 18.399 19.9935 18.4808C19.8338 18.5626 19.7014 18.6638 19.5962 18.7846C19.495 18.9053 19.4229 19.0241 19.3801 19.141L17.6567 18.6911L18.3285 14.0408H23.195V15.4078Z" fill="#4285F4"/>
</svg>
