<svg width="179" height="61" viewBox="0 0 179 61" fill="none" xmlns="http://www.w3.org/2000/svg">
<path fill-rule="evenodd" clip-rule="evenodd" d="M26.0528 5C11.6463 5 0 16.6875 0 31.1464C0 42.7043 7.46216 52.4877 17.8142 55.9504C19.1084 56.2107 19.5825 55.3878 19.5825 54.6956C19.5825 54.0894 19.5399 52.0117 19.5399 49.8469C12.2926 51.4056 10.7834 46.73 10.7834 46.73C9.61874 43.6998 7.89305 42.921 7.89305 42.921C5.52103 41.3193 8.06584 41.3193 8.06584 41.3193C10.697 41.4925 12.0777 44.0032 12.0777 44.0032C14.4065 47.9854 18.1592 46.8602 19.6689 46.1675C19.8844 44.4791 20.575 43.3104 21.3082 42.6612C15.528 42.0551 9.4465 39.8042 9.4465 29.7609C9.4465 26.9039 10.4811 24.5664 12.1204 22.7485C11.8617 22.0993 10.9557 19.4149 12.3795 15.822C12.3795 15.822 14.5793 15.1293 19.5393 18.5059C21.6629 17.9336 23.8529 17.6424 26.0528 17.64C28.2526 17.64 30.495 17.9433 32.5657 18.5059C37.5263 15.1293 39.726 15.822 39.726 15.822C41.1499 19.4149 40.2433 22.0993 39.9847 22.7485C41.6672 24.5664 42.6591 26.9039 42.6591 29.7609C42.6591 39.8042 36.5776 42.0115 30.7542 42.6612C31.7034 43.4836 32.5225 45.0417 32.5225 47.5094C32.5225 51.0156 32.4799 53.8296 32.4799 54.695C32.4799 55.3878 32.9545 56.2107 34.2482 55.9509C44.6002 52.4872 52.0624 42.7043 52.0624 31.1464C52.105 16.6875 40.4161 5 26.0528 5Z" fill="#101112"/>
<path d="M128.14 42.6394L129.114 45.8549L131.944 47.579L135.424 47.4859L140.527 45.2956L137.604 41.3812L136.398 42.0802L134.913 40.822L134.774 37.793L134.635 34.1115L138.347 33.2727L139.46 28.3331L134.96 28.8457V25.2575L133.568 23.6264L130.923 25.9565L128.186 27.9137L128.325 30.2437L125.17 30.8495L126.052 34.6707C126.098 34.7639 126.144 34.8571 126.098 34.8571L126.191 35.2765L128.093 35.1367L127.908 39.2842L128.14 42.6394ZM138.625 28.3331C138.625 28.3797 138.625 28.3797 138.672 28.4263C138.579 28.4729 138.486 28.4729 138.393 28.5195L138.347 28.3797L138.625 28.3331ZM136.12 30.8495C136.166 30.8961 136.166 30.8961 136.213 30.9427C136.166 30.9427 136.12 30.9893 136.12 30.9893C136.073 30.9893 136.073 30.9427 136.073 30.9427C136.027 30.8961 136.073 30.8495 136.12 30.8495ZM133.29 43.0588C133.29 43.1054 133.336 43.152 133.336 43.1986L133.29 43.2452C133.243 43.2452 133.243 43.1986 133.197 43.152C133.197 43.1054 133.197 43.1054 133.29 43.0588ZM131.758 25.5836H131.805C131.805 25.6302 131.758 25.7234 131.758 25.77C131.712 25.77 131.712 25.77 131.666 25.77C131.712 25.6768 131.712 25.6302 131.758 25.5836ZM130.135 29.6379L130.181 29.6845L129.995 29.8243L129.949 29.7777C130.042 29.7311 130.088 29.6845 130.135 29.6379ZM129.763 29.8243C129.763 29.9175 129.763 30.0107 129.81 30.1039C129.763 30.1039 129.763 30.1039 129.717 30.1039V29.8243C129.717 29.8243 129.717 29.8243 129.763 29.8243ZM128.975 27.3079C129.067 27.3079 129.114 27.3545 129.207 27.3545V27.4011C129.114 27.4011 129.021 27.4011 128.928 27.4011C128.975 27.3545 128.975 27.3545 128.975 27.3079ZM128.511 38.3988C128.743 38.9114 128.743 38.9114 128.464 39.0978C128.511 38.8648 128.511 38.6784 128.511 38.3988ZM125.588 31.9679C125.588 31.9679 125.541 31.9679 125.588 31.9679L125.634 30.7097C125.634 30.7097 125.68 30.7097 125.68 30.7563C125.634 31.1291 125.634 31.5485 125.588 31.9679ZM126.748 34.8571C126.516 34.5775 126.562 34.2513 126.748 33.9717C126.98 34.2513 126.655 34.5309 126.748 34.8571ZM169.85 44.4568L162.844 45.4354L159.411 45.9947C159.318 46.1811 159.272 46.3675 159.179 46.5539C158.993 46.4141 158.901 46.2276 158.947 46.0412L155.838 46.5539L148.879 47.9985L141.827 48.8373L134.821 49.7227L127.861 51.0275L120.762 51.4003L113.756 52.5187L106.89 53.8235L105.776 59.0428L113.107 57.6914L115.102 57.272L115.056 57.2253C115.056 57.2253 115.102 57.1787 115.148 57.1321C115.148 57.1787 115.148 57.2254 115.148 57.272L117.329 56.806C117.283 56.806 117.19 56.7594 117.143 56.7128C117.283 56.6662 117.422 56.6661 117.654 56.6195C117.607 56.6661 117.561 56.7127 117.515 56.7593L120.066 56.2001L127.258 55.8273L134.357 54.6623L141.409 53.3575L148.461 51.9129L155.56 51.0275L162.705 50.2819L169.757 48.8839L174.397 47.3927L175.65 43.7112L169.85 44.4568ZM111.576 55.5943C111.576 55.4079 111.576 55.2215 111.576 55.0351C111.901 55.3613 111.901 55.4079 111.576 55.5943ZM113.524 55.3147C113.478 55.3147 113.385 55.2215 113.432 55.1749C113.478 54.9885 113.617 54.9419 113.803 54.9885C113.803 55.2215 113.71 55.3147 113.524 55.3147ZM114.684 56.34C114.638 56.3866 114.499 56.4331 114.406 56.3865C114.313 56.3399 114.174 56.2001 114.174 56.1535C114.22 55.8739 113.988 55.9671 113.849 55.8273C113.942 55.7341 114.035 55.6875 114.128 55.5943C114.313 55.7341 114.452 55.9205 114.592 56.0603C114.684 56.1535 114.684 56.2934 114.684 56.34ZM115.798 55.5011C115.752 55.4545 115.705 55.4079 115.659 55.4079C115.705 55.3613 115.705 55.3147 115.752 55.3147C115.798 55.3147 115.844 55.3147 115.891 55.3613C115.891 55.4079 115.844 55.4545 115.798 55.5011ZM116.447 56.0603C116.54 56.2933 116.587 56.4797 116.633 56.6661C116.308 56.4331 116.262 56.2933 116.447 56.0603ZM119.371 55.4545C119.463 54.9885 119.51 54.4759 119.602 53.9633C119.834 54.5225 119.695 54.9885 119.371 55.4545ZM121.087 53.8701H120.994C120.994 53.7769 120.994 53.6837 120.948 53.4973C121.041 53.5905 121.134 53.6371 121.134 53.6837C121.134 53.7769 121.087 53.8235 121.087 53.8701ZM149.992 51.6333C149.9 51.6333 149.853 51.5867 149.76 51.5867C149.76 51.5401 149.76 51.5401 149.76 51.4935C149.807 51.4935 149.9 51.5401 149.946 51.5401C149.992 51.5867 149.992 51.6333 149.992 51.6333ZM152.359 49.6295C151.941 49.3965 151.895 48.9771 151.802 48.6043C151.755 48.3713 151.709 48.2315 151.477 48.1383C151.292 48.0451 151.152 47.9519 151.245 47.6723C151.57 47.7189 151.802 47.7655 152.127 47.8121C152.034 47.9053 151.941 47.9519 151.895 48.0451C151.987 48.1849 152.08 48.4179 152.405 48.2315C152.405 48.2781 152.405 48.3247 152.405 48.3247C152.312 48.4645 152.173 48.5577 152.034 48.7441C152.173 49.0237 152.266 49.3033 152.359 49.6295ZM153.379 48.8839C153.379 48.6509 153.379 48.4645 153.379 48.1849C153.658 48.5577 153.658 48.5577 153.379 48.8839ZM157.88 47.7189C157.694 47.5325 157.694 47.3927 157.88 47.2529C157.926 47.3927 157.926 47.5325 157.88 47.7189ZM159.782 47.113C159.782 47.0664 159.782 47.0198 159.782 46.9732C159.782 46.9732 159.829 46.9733 159.921 46.9267C159.875 47.0199 159.829 47.0664 159.782 47.113ZM165.257 48.3247C165.257 48.3247 165.211 48.3247 165.164 48.2781C165.257 47.9985 165.35 47.6723 165.675 47.4393C165.628 47.8587 165.396 48.0451 165.257 48.3247ZM170.129 47.8121C170.082 47.7655 170.036 47.7189 170.036 47.6723C170.036 47.6723 170.082 47.6257 170.129 47.5325C170.175 47.6257 170.221 47.6723 170.221 47.7189C170.221 47.7655 170.175 47.7655 170.129 47.8121ZM165.025 18.547L166.927 14.8189L167.948 10.7181L166.927 7.03667L164.793 4.10083L161.499 2.60963L157.741 2.42323L153.658 3.30863L150.317 6.10466L148.276 9.6463L147.719 14.2131L148.369 17.9412L150.503 21.0168L153.89 22.741L157.694 22.3682L158.808 21.9954C158.808 21.9954 158.808 21.9954 158.808 21.9488H158.854L159.365 21.809C159.365 21.7624 159.365 21.6692 159.318 21.6226C159.365 21.6226 159.411 21.576 159.504 21.576C159.504 21.6226 159.504 21.7158 159.55 21.7624L161.684 21.0634L165.025 18.547ZM167.113 10.2055C167.159 10.2055 167.206 10.2055 167.252 10.2521C167.206 10.2987 167.159 10.3453 167.113 10.3453C167.066 10.3453 167.02 10.2987 166.974 10.2987C167.066 10.2521 167.066 10.2055 167.113 10.2055ZM165.211 6.85027C165.118 6.99007 165.025 7.08327 164.886 7.26967C164.839 6.89687 164.839 6.89687 165.211 6.85027ZM147.951 14.8655C147.951 14.8189 147.951 14.7723 147.951 14.7257C147.997 14.7257 148.09 14.7257 148.137 14.7257C148.137 14.7723 148.137 14.8189 148.137 14.8189C148.044 14.8655 147.997 14.8655 147.951 14.8655ZM148.183 14.4927C148.183 14.4461 148.137 14.3529 148.137 14.3063C148.183 14.3063 148.229 14.3063 148.229 14.2597C148.229 14.3063 148.276 14.3995 148.276 14.4461C148.229 14.4927 148.183 14.4927 148.183 14.4927ZM148.601 14.6325C148.461 14.3995 148.461 14.3995 148.693 13.9335C148.647 14.2131 148.647 14.3995 148.601 14.6325ZM149.25 11.2307L149.157 11.1841C149.157 11.0909 149.204 11.0443 149.204 10.9511C149.25 10.9511 149.296 10.9977 149.343 10.9977C149.296 11.0909 149.296 11.1375 149.25 11.2307ZM149.343 15.6578C149.343 15.5646 149.343 15.4713 149.343 15.3781C149.389 15.3781 149.389 15.3781 149.436 15.3781C149.436 15.4713 149.482 15.5646 149.482 15.6578C149.436 15.6578 149.389 15.6578 149.343 15.6578ZM149.76 14.3063C149.76 14.1199 149.853 14.0267 150.039 14.0733C150.085 14.0733 150.132 14.1665 150.132 14.1665C150.085 14.3529 149.946 14.3995 149.76 14.3063ZM150.549 15.6578C150.503 15.6578 150.456 15.6111 150.456 15.5645C150.456 15.5179 150.503 15.4714 150.549 15.4714C150.596 15.4714 150.596 15.5179 150.642 15.5645C150.596 15.6111 150.549 15.6578 150.549 15.6578ZM157.741 4.75325C157.833 4.84645 157.88 4.98625 157.973 5.07945C157.926 5.07945 157.88 5.12605 157.88 5.12605C157.787 5.03285 157.741 4.93964 157.648 4.84644C157.694 4.79984 157.694 4.75325 157.741 4.75325ZM157.601 4.70665C157.462 4.93965 157.37 5.12605 157.277 5.31245C157.23 5.26585 157.184 5.26586 157.138 5.21926C157.23 5.07945 157.138 4.75325 157.601 4.70665ZM155.699 3.63483C155.746 3.54163 155.746 3.44844 155.746 3.35524C155.885 3.77464 155.885 3.77464 155.514 3.96104C155.606 3.77464 155.699 3.72803 155.699 3.63483ZM155.421 5.68526C155.467 5.73186 155.467 5.73185 155.514 5.77845C155.467 5.82505 155.421 5.87166 155.421 5.87166C155.421 5.82506 155.374 5.77845 155.374 5.73185L155.421 5.68526ZM155.142 5.45226C155.142 5.68526 155.282 5.91825 154.91 6.01146C154.91 5.77845 154.818 5.59206 155.142 5.45226ZM155.235 21.0634C155.235 20.877 155.235 20.7372 155.235 20.5508C155.282 20.5508 155.282 20.5508 155.328 20.5508C155.374 20.7372 155.374 20.877 155.421 21.0634C155.328 21.0634 155.282 21.0634 155.235 21.0634ZM157.23 21.4828C157.184 21.4362 157.138 21.3896 157.091 21.2964C157.138 21.2498 157.138 21.2498 157.184 21.2032C157.23 21.2498 157.277 21.343 157.323 21.3896C157.277 21.4362 157.23 21.4828 157.23 21.4828ZM158.39 21.1566C158.437 21.2032 158.483 21.2498 158.483 21.2498C158.437 21.576 158.437 21.809 158.437 22.0886C158.158 21.9022 158.251 21.576 158.205 21.343C158.112 21.2964 158.019 21.2032 157.88 21.1566C158.158 20.877 158.344 20.5974 158.251 20.2246C158.205 20.0382 158.205 19.8984 157.973 19.8518C157.741 19.8052 157.694 19.9916 157.601 20.1314C157.601 20.178 157.555 20.178 157.555 20.2246C157.416 20.0848 157.323 19.9916 157.138 19.8052C157.602 19.7586 157.601 19.7586 157.741 19.2926C157.787 19.3858 157.88 19.5256 157.926 19.6654C158.158 19.5722 158.344 19.479 158.576 19.3858C158.437 19.945 158.344 20.5042 158.205 21.11C158.251 21.11 158.297 21.11 158.39 21.1566ZM158.065 18.2674C158.065 18.1276 158.019 18.0344 158.019 17.848C158.205 17.848 158.39 17.848 158.622 17.848C158.39 18.0344 158.251 18.1276 158.065 18.2674ZM159.133 21.2032C158.993 21.2498 158.854 21.2964 158.715 21.343C158.715 21.2964 158.669 21.2964 158.669 21.2498C158.761 21.1566 158.901 21.0168 159.086 20.8304C159.086 21.0168 159.179 21.2032 159.133 21.2032ZM158.808 18.5936C158.854 18.5936 158.854 18.5936 158.901 18.5936C158.947 18.6868 158.947 18.7334 158.993 18.8266C158.947 18.8266 158.947 18.8732 158.901 18.8732C158.854 18.78 158.808 18.6868 158.808 18.5936ZM159.179 20.3644C159.086 20.3644 158.993 20.3644 158.947 20.3644C158.947 20.3178 158.947 20.2712 158.947 20.2712C159.04 20.2712 159.086 20.3178 159.179 20.3178C159.179 20.2712 159.179 20.3178 159.179 20.3644ZM159.736 20.5042C159.643 20.4576 159.55 20.411 159.411 20.3178C159.55 20.2246 159.643 20.178 159.829 20.0848C159.782 20.2246 159.736 20.3644 159.736 20.5042ZM157.787 16.8694L155.282 15.9839L154.539 12.9549L155.282 9.6463L157.741 7.96868L159.875 9.13369L161.267 12.2559L160.339 15.3781L157.787 16.8694ZM160.849 21.0168C160.803 21.0168 160.756 21.0168 160.71 21.0168C160.385 20.644 160.71 20.3644 160.756 20.0382C160.803 20.0382 160.849 20.0382 160.849 20.0382C160.896 20.3644 160.849 20.6906 160.849 21.0168ZM161.36 20.5508C161.267 20.5042 161.22 20.411 161.128 20.3644C161.174 20.3178 161.174 20.3178 161.22 20.2712C161.313 20.3178 161.36 20.411 161.452 20.4576C161.452 20.5042 161.406 20.5042 161.36 20.5508ZM161.313 19.7586C161.36 19.8518 161.406 19.945 161.452 20.0848C160.942 19.8052 160.942 19.712 161.035 19.1994C161.174 19.1994 161.313 19.246 161.499 19.246C161.452 19.3858 161.406 19.479 161.36 19.6188C161.406 19.6654 161.499 19.712 161.545 19.7586C161.452 19.712 161.406 19.712 161.313 19.7586ZM169.433 21.0168L165.35 22.4614L161.963 25.071L161.545 28.4729L162.752 32.1543L166.834 33.7853L171.428 33.6921L172.634 34.7173V36.1153L170.221 37.1406L167.02 36.7211L166.231 34.9037L161.638 34.7173V37.9328L163.447 40.5424L166.463 41.9404L169.85 42.2666L173.005 41.1482L176.021 39.657L177.877 36.6746L178.062 32.6203L176.439 30.4301L173.191 29.3117L168.226 29.2185L167.206 27.4011L169.062 25.6302H172.263L173.052 27.2613L177.645 27.0749L176.856 22.8342L174.072 21.0168H169.433ZM164.932 26.3293C164.886 26.2827 164.793 26.2361 164.747 26.1895C164.747 26.1895 164.747 26.1895 164.7 26.1895C164.654 26.2361 164.561 26.236 164.515 26.2826C164.515 26.236 164.515 26.1895 164.515 26.1429H164.747C164.747 26.0963 164.7 26.0496 164.7 26.0496L164.747 26.003C164.839 26.0962 164.932 26.1428 164.979 26.236C164.979 26.2826 164.932 26.3293 164.932 26.3293ZM169.34 41.1016C169.294 41.1016 169.293 41.1016 169.247 41.055C169.293 40.9152 169.34 40.7288 169.386 40.589C169.433 40.589 169.433 40.589 169.479 40.6356C169.386 40.7754 169.386 40.9618 169.34 41.1016ZM176.392 32.8067C176.439 32.8067 176.485 32.8067 176.531 32.8533C176.485 33.1329 176.439 33.3659 176.392 33.7387C176.021 33.3193 176.531 33.1329 176.392 32.8067ZM175.14 32.4339C175.186 32.4339 175.186 32.4339 175.232 32.4339L175.14 32.8999C175.093 32.8999 175.093 32.8999 175.047 32.8999C175.047 32.7601 175.093 32.6203 175.14 32.4339ZM171.938 30.6631C171.938 30.8961 171.938 30.8961 171.706 30.9427C171.799 30.8495 171.845 30.7563 171.938 30.6631ZM112.782 19.479L113.014 23.3002L115.334 26.3293L118.814 27.7739L122.618 27.9603L126.098 26.5623L129.16 24.4652L131.202 21.2964L131.805 17.7548L128.603 17.9878L125.588 18.9664L124.845 21.4362L124.567 21.6226C124.66 21.6692 124.753 21.6692 124.892 21.7158C124.753 21.9022 124.613 22.042 124.474 22.2284C124.335 22.1352 124.196 21.9954 124.149 21.9022L122.757 22.741L120.066 21.2964L119.788 18.2674L120.53 15.1451L122.757 13.0481L125.216 13.7005L125.588 15.5179L128.743 15.1917L132.083 14.7723L130.691 10.2987L128.835 9.13369C128.696 9.18029 128.511 9.18029 128.371 9.04048C128.464 9.04048 128.557 9.04048 128.65 8.99388L128.418 8.85408C128.418 8.94729 128.371 9.08709 128.371 9.18029C128 9.3667 127.722 9.27349 127.49 9.04048C127.49 8.99388 127.49 8.94729 127.49 8.94729C127.722 8.99389 127.908 9.04049 128.093 9.08709C128.279 9.08709 128.232 8.90068 128.232 8.76088L127.119 8.06187L122.757 8.20168L118.814 9.36669L115.659 12.0229L113.107 15.3781L112.782 19.479ZM129.392 21.9022C129.717 22.042 130.042 22.1352 130.413 22.275C130.274 22.5546 129.995 22.508 129.81 22.5546C129.578 22.3682 129.392 22.1818 129.16 21.9954C129.16 21.9022 129.207 21.8556 129.392 21.9022ZM124.845 22.3216C125.031 22.508 124.985 22.6478 124.938 22.7876C124.892 22.9274 124.845 23.0672 124.799 23.207C124.474 22.8342 124.706 22.6012 124.845 22.3216ZM123.685 26.3759C123.639 26.0497 123.593 25.6768 123.546 25.3506C123.825 25.6768 123.778 26.0497 123.685 26.3759ZM123.453 23.3002C123.453 23.44 123.5 23.5798 123.5 23.7662C123.314 23.5798 123.361 23.44 123.453 23.3002ZM122.386 25.1176C122.386 25.1642 122.433 25.2108 122.433 25.2108L122.386 25.2575C122.34 25.2575 122.34 25.2108 122.294 25.1642C122.294 25.1176 122.34 25.1176 122.386 25.1176ZM126.191 13.7005L126.144 13.6539L126.191 13.6073L126.237 13.6539L126.191 13.7005ZM126.284 13.0481L126.237 12.9083C126.33 12.8617 126.376 12.8151 126.469 12.7685C126.608 13.1413 126.33 13.0015 126.284 13.0481ZM126.469 7.96868C126.608 8.24828 126.469 8.29488 126.237 8.29488C126.191 8.01527 126.33 8.01528 126.469 7.96868ZM126.144 8.71429C126.376 8.66769 126.608 8.66768 126.933 8.62108C126.701 8.85409 126.562 8.99388 126.376 9.22688C126.144 9.08708 126.144 8.90069 126.144 8.71429ZM126.191 11.9763C126.191 12.0229 126.237 12.1161 126.237 12.1161C126.237 12.1627 126.144 12.1627 126.098 12.1627C126.098 12.1627 126.052 12.1161 126.052 12.0695C126.098 12.0695 126.144 12.0229 126.191 11.9763ZM125.959 9.04048V9.13369C125.866 9.13369 125.773 9.18029 125.68 9.18029C125.68 9.13369 125.68 9.04048 125.68 8.99388C125.773 8.99388 125.866 8.99388 125.959 9.04048ZM124.845 8.62108C125.031 8.85409 124.985 8.94729 124.753 9.08709C124.799 8.90069 124.799 8.80748 124.845 8.62108ZM124.428 13.1879C124.474 13.1879 124.474 13.1879 124.521 13.1879L124.474 13.3743C124.428 13.3277 124.428 13.3277 124.381 13.2811C124.381 13.2345 124.381 13.2345 124.428 13.1879ZM120.716 12.2093C120.67 12.0229 120.623 11.9763 120.623 11.8831C120.623 11.8365 120.67 11.7899 120.67 11.6967C120.716 11.6967 120.762 11.6967 120.762 11.7433C120.809 11.8831 120.762 11.9763 120.716 12.2093ZM122.154 13.0481H122.201C122.201 13.0947 122.154 13.1879 122.154 13.2345C122.108 13.2345 122.108 13.2345 122.062 13.2345C122.108 13.1879 122.108 13.0947 122.154 13.0481ZM121.087 9.18029C121.041 8.99389 120.994 8.85409 120.948 8.66769C121.319 8.76089 121.366 8.80749 121.087 9.18029ZM121.273 9.8327L121.134 10.0657C121.087 10.0657 121.087 10.0191 121.041 10.0191C121.087 9.9259 121.134 9.8327 121.18 9.78609C121.226 9.8327 121.273 9.8327 121.273 9.8327ZM120.67 10.1589C120.994 10.3453 121.273 10.4851 121.505 10.5783C121.458 10.7647 121.458 10.9977 121.412 11.1841C121.412 11.2307 121.366 11.3239 121.319 11.3239C121.134 11.3705 121.18 11.5569 121.226 11.6501C121.412 11.9763 121.273 12.3025 121.18 12.6287C120.855 12.2093 121.134 11.6501 120.902 11.1841C120.994 11.0443 121.087 10.9511 121.18 10.8113C120.948 10.6249 120.762 10.8579 120.577 10.8579C120.623 10.6715 120.67 10.4385 120.67 10.1589ZM120.391 13.0481H120.438C120.438 13.0947 120.438 13.1879 120.391 13.2345H120.345C120.391 13.1413 120.391 13.0947 120.391 13.0481ZM118.025 23.2536C117.793 23.3002 117.607 23.3468 117.422 23.3934L117.375 23.3002C117.607 23.1604 117.793 23.0206 118.025 22.8342C118.025 22.9274 118.025 23.0672 118.025 23.2536ZM117.515 20.7372C117.654 21.11 117.375 21.2498 117.329 21.4828C117.283 21.4828 117.236 21.4362 117.19 21.4362C117.329 21.2498 117.422 21.0168 117.515 20.7372ZM115.427 22.275C115.427 22.3682 115.473 22.4148 115.473 22.508C115.473 22.508 115.38 22.5546 115.334 22.5546C115.334 22.4614 115.288 22.3682 115.288 22.275C115.38 22.3216 115.427 22.275 115.427 22.275ZM113.478 21.4828C113.617 21.576 113.617 21.6692 113.524 21.809C113.524 21.8556 113.432 21.8556 113.385 21.809C113.339 21.6692 113.339 21.576 113.478 21.4828ZM134.96 1.0718L135.331 5.91826L131.387 7.17647L133.197 11.1841L135.099 10.9045L134.913 15.2384L135.145 19.6188L136.12 22.8342L138.95 24.5584L142.43 24.4652L146.466 23.5798C146.373 23.5798 146.281 23.5332 146.188 23.3468C146.42 23.44 146.559 23.4866 146.698 23.5332L148.276 23.207L145.77 18.3606L143.45 19.0596L141.966 17.8014L141.827 13.7471L142.337 9.8793L146.095 8.66769L146.93 6.29106L148.925 3.44843L142.198 4.61344V0L138.718 0.792213L134.96 1.0718ZM132.965 7.54928C132.872 7.64248 132.779 7.73567 132.686 7.82887C132.594 7.54927 132.733 7.50268 132.965 7.54928ZM132.965 9.6463C132.965 9.6929 132.872 9.6463 132.779 9.6463C132.779 9.6463 132.733 9.59969 132.733 9.55309C132.918 9.50649 132.826 9.27349 132.965 9.13369C133.011 9.18029 133.058 9.18028 133.104 9.22688C133.058 9.36668 133.011 9.5065 132.965 9.6463ZM133.15 7.22307C133.104 7.17647 133.104 7.12987 133.104 7.08327C133.104 7.08327 133.15 7.03667 133.197 7.03667C133.197 7.08327 133.243 7.12987 133.29 7.17647C133.243 7.17647 133.197 7.22307 133.15 7.22307ZM146.42 19.9916C146.42 20.1314 146.42 20.2246 146.42 20.2712H146.373C146.373 20.2246 146.327 20.178 146.327 20.1314C146.281 20.1314 146.327 20.0848 146.42 19.9916ZM138.254 0.885406C138.254 0.932006 138.3 0.978604 138.3 1.0718C138.3 1.0718 138.254 1.11841 138.208 1.11841C138.161 1.07181 138.161 1.02521 138.115 0.978612C138.161 0.932012 138.208 0.885406 138.254 0.885406ZM135.702 9.69289L135.517 9.55309C135.563 9.50649 135.563 9.50649 135.609 9.45989C135.656 9.50649 135.749 9.5997 135.795 9.6463C135.749 9.6463 135.749 9.69289 135.702 9.69289ZM136.305 9.8327H136.213C136.213 9.7395 136.213 9.64629 136.166 9.55309C136.213 9.55309 136.259 9.55309 136.305 9.55309C136.305 9.64629 136.305 9.7395 136.305 9.8327ZM135.888 2.84263C136.166 2.70283 136.166 2.70283 136.352 3.02903C136.213 2.98243 136.073 2.88923 135.888 2.84263ZM136.491 1.86402C136.445 1.81742 136.398 1.77082 136.398 1.72422C136.398 1.67762 136.445 1.67761 136.491 1.58441C136.537 1.67761 136.584 1.72421 136.584 1.77081C136.584 1.81741 136.537 1.86402 136.491 1.86402ZM136.816 7.96868L136.769 7.92208C136.816 7.92208 136.816 7.87548 136.862 7.92208L136.909 7.96868C136.862 7.96868 136.816 7.96868 136.816 7.96868ZM137.326 2.37663C137.094 2.23682 137.187 2.09702 137.372 1.91062C137.558 2.00382 137.744 2.05042 137.651 2.28342C137.651 2.33002 137.419 2.42323 137.326 2.37663ZM137.419 4.52025C137.465 4.47365 137.512 4.47364 137.558 4.42704C137.604 4.52024 137.651 4.66005 137.697 4.75325C137.651 4.75325 137.651 4.79984 137.604 4.79984C137.604 4.70664 137.512 4.61345 137.419 4.52025ZM137.651 22.741C137.883 22.6478 138.022 22.5546 138.254 22.4614C138.161 22.7876 137.976 22.8342 137.651 22.741ZM138.022 7.40947C138.161 7.26967 138.208 7.17647 138.347 7.03667C138.393 7.26967 138.44 7.40947 138.44 7.64247C138.347 7.54927 138.254 7.50267 138.022 7.40947ZM138.718 3.86783C138.718 3.86783 138.672 3.82124 138.625 3.77464C138.672 3.72804 138.718 3.72803 138.764 3.68143C138.764 3.68143 138.811 3.72804 138.857 3.77464C138.811 3.82124 138.764 3.82123 138.718 3.86783ZM140.156 7.59587V7.82887C140.11 7.82887 140.11 7.82887 140.063 7.82887L140.017 7.59587C140.063 7.59587 140.11 7.59587 140.156 7.59587ZM139.739 23.5332C139.692 23.4866 139.646 23.44 139.553 23.3934L139.6 23.3468C139.646 23.3934 139.692 23.44 139.739 23.44C139.785 23.44 139.785 23.4866 139.739 23.5332ZM139.646 22.8342C139.6 22.8342 139.507 22.8808 139.46 22.8808C139.46 22.8342 139.46 22.8342 139.46 22.7876C139.507 22.7876 139.6 22.741 139.646 22.741C139.6 22.741 139.646 22.8342 139.646 22.8342ZM139.321 3.02903C139.321 3.02903 139.368 3.02903 139.414 2.98243L139.46 3.02903C139.414 3.02903 139.368 3.07563 139.368 3.07563C139.321 3.07563 139.321 3.02903 139.321 3.02903ZM138.532 1.11841C138.718 1.25821 138.857 1.39801 139.043 1.53781C138.672 1.72421 138.532 1.63101 138.532 1.11841C138.532 1.07181 138.486 0.978604 138.44 0.838802C138.579 0.885403 138.625 0.932012 138.811 0.978612C138.672 1.07181 138.625 1.11841 138.532 1.11841ZM104.384 40.1696L104.06 36.3017L104.152 32.4339L100.673 32.9465L97.1 33.5523V37.0008L97.0072 37.0474L94.9658 34.4843L91.6716 34.3445L88.331 35.7891L85.64 38.3522L84.5265 41.8938L84.0625 45.5752L84.2481 46.7402L84.2945 46.6937C84.2945 46.7403 84.2945 46.7869 84.2945 46.8335L84.7585 49.8625L86.8463 52.1925C86.8463 52.1459 86.8927 52.0993 86.9391 52.0061C87.0319 52.1925 87.0783 52.2857 87.1247 52.4255C87.1247 52.4255 87.1247 52.4255 87.0783 52.4255L87.5887 52.9847L91.8108 53.8235L94.9194 52.1459L96.9144 49.4431L97.564 49.5363L97.2856 52.7983L94.2234 55.9205L91.3004 55.1749L88.0062 55.9205L84.6193 56.2933L86.3823 59.835L90.1405 60.8136L94.0842 61L97.6568 59.9282L101.044 58.2506L103.41 55.2681L104.199 51.5867L103.92 47.7189L104.152 43.851L104.384 40.1696ZM85.5936 47.2062C85.64 47.1596 85.64 47.113 85.6864 47.113C85.6864 47.113 85.7328 47.1596 85.8256 47.2062C85.6864 47.1596 85.64 47.2062 85.5936 47.2062ZM86.3823 47.2529C86.2895 47.2529 86.1968 47.2062 86.1504 47.2062C86.1504 47.1596 86.1504 47.1596 86.1504 47.113C86.2432 47.113 86.3359 47.113 86.3823 47.113C86.3823 47.1596 86.3823 47.2063 86.3823 47.2529ZM86.8463 47.0199C86.8463 46.7869 86.9855 46.7402 87.1711 46.6004C87.1247 46.8335 87.0783 47.0199 86.8463 47.0199ZM88.0526 42.9656C87.9598 42.7326 87.9598 42.7326 88.1918 42.453C88.1454 42.6394 88.099 42.7792 88.0526 42.9656ZM97.0536 59.1826C96.7752 59.0428 96.5897 59.2292 96.4505 59.369C96.2649 59.2758 96.0793 59.1826 95.8937 59.0428C96.3577 58.7632 96.8216 58.903 97.2856 58.9962C97.1928 59.0894 97.1 59.1826 97.0536 59.1826ZM96.1257 38.725C96.3577 39.0046 96.3577 39.0512 95.8473 39.2842C95.9401 39.0512 96.0329 38.9114 96.1257 38.725ZM95.2905 39.191C95.3369 39.191 95.3369 39.191 95.3833 39.191C95.3833 39.2842 95.3369 39.3774 95.3369 39.4706H95.2905C95.2905 39.3774 95.2905 39.2842 95.2905 39.191ZM94.6874 36.1153C94.6874 36.3484 94.5946 36.4416 94.4554 36.395C94.3626 36.3484 94.3626 36.2551 94.2698 36.1153C94.4554 36.1153 94.5482 36.1153 94.6874 36.1153ZM88.5166 37.6066C88.5166 37.327 88.563 37.2338 88.795 37.327C88.7486 37.4202 88.7486 37.4668 88.7022 37.5134C88.6558 37.5134 88.6094 37.5134 88.5166 37.6066ZM88.8878 38.5386C88.8414 38.492 88.795 38.4454 88.7022 38.3988C88.7486 38.3522 88.795 38.3056 88.795 38.3056C88.8414 38.3056 88.8878 38.3522 88.9806 38.3988C88.9342 38.4454 88.8878 38.5386 88.8878 38.5386ZM89.5373 43.0588C89.4909 43.0122 89.4445 42.919 89.3981 42.8724C89.4445 42.8724 89.4445 42.8258 89.4909 42.8258C89.5373 42.8724 89.5837 42.9656 89.6301 43.0122C89.6301 43.0122 89.5837 43.0122 89.5373 43.0588ZM89.5373 41.8938C89.5837 41.987 89.5837 42.1268 89.6301 42.3132C89.4445 42.1734 89.3517 42.0802 89.5373 41.8938ZM89.7693 42.9656C89.7693 42.8724 89.7693 42.8258 89.7693 42.7326C89.7693 42.7326 89.8157 42.7326 89.8621 42.7326C89.8621 42.8258 89.9085 42.8724 89.9085 42.9656C89.8157 42.9656 89.7693 42.9656 89.7693 42.9656ZM91.3468 51.5401C91.3004 51.5401 91.3004 51.4935 91.254 51.4935C91.3468 51.3537 91.4396 51.2139 91.486 51.1207C91.5324 51.1207 91.5324 51.1673 91.5788 51.1673L91.3468 51.5401ZM96.4969 46.3209L94.3162 48.3713L91.7644 47.2995L91.022 44.4102L91.8108 41.1948L94.2698 39.0512L96.5433 40.6356L97.5176 43.3384L96.4969 46.3209ZM97.332 36.1153C97.2392 35.8357 97.3784 35.7425 97.6104 35.6959C97.6568 35.9756 97.6568 35.9755 97.332 36.1153ZM97.564 35.2765C97.3784 35.1833 97.1928 35.0901 97.2392 34.8571C97.2856 34.7639 97.4712 34.7173 97.6104 34.6241C97.6568 34.6707 97.6568 34.7173 97.7032 34.7173C97.6568 34.9503 97.6104 35.0901 97.564 35.2765ZM98.6311 35.1833C98.5847 35.0901 98.5383 34.9969 98.5383 34.9969C98.5847 34.9503 98.6775 34.9037 98.7239 34.9037L98.8167 34.9969C98.7703 35.0435 98.7239 35.0901 98.6311 35.1833ZM100.162 40.8686H100.116C100.116 40.822 100.069 40.7288 100.069 40.6822C100.116 40.6822 100.162 40.6822 100.162 40.6822C100.162 40.7288 100.162 40.7754 100.162 40.8686ZM100.116 40.2162C100.116 40.1696 100.116 40.123 100.162 40.0764C100.162 40.0764 100.209 40.0764 100.255 40.0764C100.255 40.123 100.301 40.123 100.301 40.1696C100.209 40.1696 100.162 40.2162 100.116 40.2162ZM101.786 35.4163C101.786 35.3697 101.786 35.3697 101.786 35.3231C101.879 35.2765 101.972 35.2765 102.018 35.2299C102.018 35.2765 102.018 35.3231 102.064 35.3697C101.972 35.4163 101.879 35.4163 101.786 35.4163ZM103.364 36.5348C103.364 36.4882 103.317 36.4416 103.317 36.3484C103.317 36.3018 103.317 36.2552 103.364 36.162C103.41 36.162 103.41 36.162 103.456 36.162V36.4881C103.41 36.5347 103.364 36.5348 103.364 36.5348ZM124.242 34.8571L123.5 33.0863C123.314 33.1795 123.129 33.2727 122.943 33.4125C122.943 33.2727 122.943 33.1795 122.943 33.1329C123.082 33.0397 123.221 32.8999 123.453 32.9465L122.804 31.3621L119.231 29.8709L114.638 29.0787L110.509 29.9175L107.678 33.6921L107.307 37.793L109.674 37.4202L113.246 36.5814L114.452 34.6241L116.726 34.7639L117.236 36.0687L117.422 36.1153L112.782 38.5386L109.21 39.7036L106.658 42.453L105.823 45.9947L107.586 49.9091L111.947 50.5149L115.288 49.3033L117.515 46.6937V46.5072L117.607 46.6004L117.515 46.6937L117.654 49.1635L120.902 48.8373L124.103 48.0451L124.057 43.618L124.335 39.191L124.242 34.8571ZM110.509 47.2529C110.462 47.1597 110.462 47.0664 110.416 46.9732C110.694 46.9266 110.601 47.113 110.648 47.2062C110.555 47.2528 110.509 47.2529 110.509 47.2529ZM111.761 47.346C111.529 47.346 111.297 47.346 111.065 47.346C111.065 47.0664 111.065 47.0665 111.297 46.8335C111.483 46.9733 111.622 47.0664 111.808 47.2062C111.808 47.2528 111.761 47.2994 111.761 47.346ZM114.36 46.0412L112.179 44.4568L114.499 41.8006L117.097 41.0084L117.515 42.453L114.36 46.0412ZM118.767 35.2765C118.767 35.2299 118.767 35.1833 118.721 35.1367C118.767 35.1367 118.767 35.1367 118.814 35.1367C118.814 35.1367 118.86 35.1833 118.86 35.2299C118.814 35.2299 118.767 35.2765 118.767 35.2765ZM122.062 40.1696C122.015 39.9366 121.969 39.7502 121.922 39.5172C122.201 39.4706 122.201 39.4706 122.294 39.9832C122.247 40.0298 122.154 40.0764 122.062 40.1696ZM122.665 36.0221C122.479 35.9755 122.34 35.8823 122.154 35.8357C122.247 35.5095 122.479 35.6027 122.711 35.5561C122.711 35.7425 122.665 35.8357 122.665 36.0221ZM123.453 35.9756C123.314 35.9756 123.221 35.9755 123.036 35.9289C123.175 35.7425 123.314 35.7425 123.453 35.9756ZM123.407 46.3674C123.268 46.5538 123.175 46.6937 123.036 46.8335C122.897 46.414 122.897 46.414 123.407 46.3674ZM123.314 47.6723C123.314 47.4859 123.361 47.3461 123.361 47.1597C123.593 47.5325 123.593 47.5325 123.314 47.6723ZM123.593 45.5752C123.453 45.4354 123.361 45.4354 123.361 45.3422C123.268 44.9694 123.268 44.5966 123.546 44.2238C123.639 44.6898 123.546 45.1092 123.593 45.5752ZM123.5 43.5248C123.5 43.3384 123.546 43.1054 123.546 42.8724C123.685 43.2452 123.685 43.2452 123.5 43.5248ZM123.732 42.3132C123.639 42.1734 123.593 42.0336 123.5 41.8938C123.546 41.8938 123.546 41.8472 123.593 41.8472C123.685 41.987 123.732 42.1268 123.825 42.3132C123.778 42.3132 123.732 42.3132 123.732 42.3132ZM145.909 45.482L149.714 45.1092L153.704 43.851L156.998 41.2414L158.901 37.5134L159.921 33.4125L158.901 29.7311L156.766 26.7953L153.611 25.3972C153.565 25.4904 153.565 25.537 153.519 25.6302C153.472 25.6302 153.472 25.5836 153.426 25.5836C153.472 25.4904 153.472 25.4438 153.519 25.3506L153.472 25.304L149.714 25.1176L145.631 26.2826L142.476 29.0787L140.574 32.7601L140.249 34.2979C140.249 34.3445 140.295 34.3911 140.295 34.4377C140.249 34.4377 140.249 34.4377 140.203 34.4843L139.692 36.9076L140.342 40.6356L142.476 43.7112L145.909 45.482ZM154.771 34.1581C154.725 34.1581 154.679 34.1115 154.632 34.1115C154.679 34.0183 154.725 33.9251 154.725 33.8319C154.771 33.8319 154.771 33.8785 154.818 33.8785C154.818 33.9717 154.818 34.0649 154.771 34.1581ZM155.746 36.3484C155.746 36.3018 155.699 36.2552 155.699 36.2086C155.838 36.162 155.931 36.1153 156.117 36.0687C156.07 36.395 155.885 36.3018 155.746 36.3484ZM155.746 35.3697C155.653 34.9037 155.653 34.9037 156.117 34.6241C156.163 34.7639 156.21 34.8571 156.302 35.0435C156.117 35.1367 155.931 35.2765 155.746 35.3697ZM158.065 36.4416C157.926 36.3484 157.787 36.3018 157.601 36.162C157.88 36.1154 158.065 36.1154 158.065 36.4416ZM157.88 31.5019L157.973 31.5485C157.926 31.5951 157.926 31.6417 157.88 31.7349C157.833 31.7349 157.833 31.7349 157.787 31.6883C157.833 31.6417 157.88 31.5485 157.88 31.5019ZM157.184 34.2979C157.091 34.0649 157.045 33.8785 156.998 33.7387C157.138 33.5989 157.23 33.5057 157.37 33.3659C157.462 33.5989 157.509 33.8319 157.648 34.1581C157.462 34.2047 157.323 34.2513 157.184 34.2979ZM157.509 30.3369C157.462 30.5699 157.416 30.8029 157.37 31.0359C157.323 31.0359 157.277 31.0359 157.23 31.0359C157.37 30.8029 157.184 30.5233 157.509 30.3369ZM157.138 31.4553C157.23 31.8281 157.277 32.1543 157.37 32.4805C156.859 32.2009 156.859 32.2009 157.138 31.4553ZM156.349 32.2941C156.117 32.2941 156.024 32.2009 155.931 31.9679C156.256 31.8747 156.256 31.8747 156.349 32.2941ZM155.792 30.3835C155.838 30.3369 155.885 30.3369 155.931 30.3369C155.931 30.3369 155.931 30.3369 155.978 30.3369C156.024 30.2903 156.117 30.2437 156.163 30.1505C156.163 30.1971 156.21 30.1971 156.21 30.2437C156.117 30.2903 156.024 30.2903 155.978 30.3369C155.978 30.3835 155.978 30.4301 155.978 30.4767C155.931 30.5233 155.885 30.5233 155.838 30.5233C155.746 30.4767 155.746 30.4301 155.792 30.3835ZM155.978 32.8999C156.256 33.1329 156.442 32.9931 156.674 32.8999C156.766 32.8533 156.859 32.8067 156.998 32.7601C156.998 32.8067 156.998 32.8533 156.998 32.8533C156.859 33.0397 156.72 33.2261 156.534 33.4591C156.21 33.3659 155.885 33.3193 155.514 33.2261C155.653 32.8533 155.792 32.7601 155.978 32.8999ZM155.096 33.6921C154.818 33.5989 154.864 33.3193 154.725 33.1329C155.05 33.2727 155.05 33.2727 155.096 33.6921ZM154.678 31.9679L154.725 32.0145C154.678 32.1077 154.632 32.1543 154.586 32.2475L154.539 32.2009L154.678 31.9679ZM146.884 43.3384C146.791 43.2452 146.745 43.1986 146.652 43.1054L146.698 43.0588C146.791 43.1054 146.837 43.1986 146.93 43.2452L146.884 43.3384ZM148.137 42.5462C148.09 42.4996 148.09 42.4996 148.044 42.453C148.09 42.4064 148.137 42.4064 148.137 42.3598C148.183 42.4064 148.183 42.4064 148.183 42.4064C148.183 42.4996 148.183 42.4996 148.137 42.5462ZM152.08 41.3812C152.034 41.3346 152.034 41.3346 151.987 41.288C152.08 41.2414 152.127 41.1948 152.219 41.1482L152.266 41.1948C152.173 41.2414 152.127 41.288 152.08 41.3812ZM153.101 33.4125C153.147 33.3659 153.147 33.2261 153.147 33.1329C153.147 32.8999 153.194 32.7135 153.194 32.4339C153.565 32.7135 153.611 32.9931 153.472 33.3193C153.379 33.5989 153.287 33.8785 153.194 34.1581C153.147 34.1581 153.101 34.1581 153.055 34.1581C153.008 33.8785 152.776 33.6455 153.101 33.4125ZM152.591 28.8923C152.637 28.8923 152.637 28.9389 152.73 28.9855C152.683 29.0321 152.637 29.0787 152.591 29.0787C152.544 29.0787 152.544 29.0321 152.498 28.9855C152.498 28.9389 152.544 28.8923 152.591 28.8923ZM152.451 30.4767C152.498 30.4301 152.544 30.4301 152.591 30.4301C152.591 30.4767 152.637 30.4767 152.637 30.5233C152.591 30.5699 152.544 30.6165 152.498 30.6631L152.451 30.6165C152.405 30.5699 152.405 30.5233 152.451 30.4767ZM152.498 31.2223C152.405 31.5019 152.359 31.6883 152.312 31.9679C151.941 31.5019 151.941 31.4087 152.498 31.2223ZM152.127 27.6341C152.034 27.8205 151.987 27.9603 151.895 28.1933C151.802 27.8205 151.802 27.8205 152.127 27.6341ZM151.895 29.2651C151.848 29.3117 151.755 29.4049 151.709 29.4515L151.616 29.3583C151.709 29.3117 151.756 29.2651 151.848 29.1719C151.848 29.2185 151.848 29.2651 151.895 29.2651ZM151.524 25.9565C151.616 25.9565 151.663 26.003 151.756 26.003V26.0963C151.663 26.0497 151.616 26.0496 151.524 26.003V25.9565ZM151.199 29.3117C151.245 29.3117 151.245 29.3583 151.292 29.4049C151.245 29.4515 151.199 29.4515 151.199 29.4515C151.152 29.4515 151.152 29.4049 151.06 29.3583C151.106 29.3583 151.152 29.3117 151.199 29.3117ZM151.384 29.9641C151.384 30.0107 151.384 30.0573 151.384 30.1039C151.245 30.1039 151.06 30.3369 150.92 30.0107C151.06 30.0107 151.199 29.9641 151.384 29.9641ZM147.301 32.3407L149.76 30.3369L151.895 31.8281L152.776 34.5309C152.823 34.5309 152.869 34.5309 152.915 34.5309C152.915 34.6707 152.962 34.8105 152.962 34.9037C152.915 34.9037 152.869 34.9037 152.823 34.9503L152.776 34.7173L152.683 35.4163C152.73 35.4163 152.776 35.4163 152.823 35.4163C152.823 35.6027 152.823 35.7891 152.869 36.0221C152.776 36.0221 152.683 35.9756 152.637 35.9756L152.359 37.793L149.853 40.0764L147.162 39.191L146.605 35.6959L147.301 32.3407ZM145.863 31.8747C145.678 31.9679 145.538 32.0145 145.399 32.0611C145.585 31.8281 145.585 31.8281 145.863 31.8747ZM143.172 30.0107C143.126 30.0573 143.126 30.1039 143.079 30.1039C143.079 30.1039 143.033 30.0573 142.94 30.0107C143.033 30.0107 143.126 30.0107 143.172 30.0107ZM143.358 32.4339C143.218 32.5737 143.126 32.7135 143.033 32.8533C142.94 32.7135 142.847 32.6203 142.708 32.4339C142.94 32.4339 143.126 32.4339 143.358 32.4339ZM141.223 32.2941C141.27 32.3407 141.363 32.4339 141.409 32.4805C141.363 32.5271 141.316 32.5737 141.316 32.5737C141.223 32.5271 141.177 32.4805 141.131 32.3873C141.131 32.3407 141.177 32.2941 141.223 32.2941ZM141.038 34.1581C141.27 34.2513 141.363 34.2513 141.548 34.3445C141.27 34.5309 141.223 34.3445 141.038 34.1581ZM142.198 32.2009C142.198 32.2475 142.151 32.2475 142.105 32.2941C142.059 32.2941 142.059 32.2475 142.012 32.2475C142.059 32.1543 142.059 32.1077 142.105 32.0145C142.151 32.0145 142.198 32.0145 142.198 32.0611C142.198 32.1077 142.198 32.1543 142.198 32.2009ZM104.477 11.0443L100.719 10.8579L96.636 12.0229L93.4811 14.8189L91.5788 18.5004L90.6972 22.6012L91.3468 26.3293L93.4811 29.4049L96.868 31.1291L100.673 30.7563L104.663 29.4981L107.957 26.8885L109.859 23.1604L110.88 19.0596L109.859 15.3781L107.725 12.4423L104.477 11.0443ZM92.9243 21.2498C92.8315 21.1566 92.7387 21.11 92.5995 20.9702C92.8779 20.9702 92.8779 20.9702 92.9243 21.2498C93.0171 21.2032 93.1563 21.2032 93.2955 21.1566C93.1563 21.3896 93.1563 21.3896 92.9243 21.2498ZM93.1099 17.3354C93.0635 17.2888 93.0635 17.2422 93.0171 17.1956C93.1099 17.149 93.1563 17.1024 93.2491 17.0558C93.2491 17.0558 93.2955 17.149 93.3419 17.149C93.2491 17.2422 93.1563 17.2888 93.1099 17.3354ZM93.6203 17.2888C93.8058 17.2888 93.945 17.2888 94.0842 17.2422C93.9914 17.5218 93.9914 17.5218 93.6203 17.2888ZM95.7545 18.2674C95.7081 18.1742 95.6617 18.081 95.6153 17.9878L95.7081 17.9412C95.7545 18.0344 95.7545 18.1742 95.8009 18.2674C95.8009 18.2208 95.8009 18.2208 95.7545 18.2674ZM103.224 14.8655C103.224 15.0053 103.224 15.1917 103.224 15.3315C103.178 15.3315 103.178 15.3315 103.132 15.3315C103.132 15.1917 103.132 15.0053 103.132 14.8655C103.178 14.8655 103.178 14.8655 103.224 14.8655ZM99.6054 14.5859C99.6518 14.5859 99.6982 14.6325 99.6982 14.6325C99.6982 14.6791 99.6518 14.6791 99.6054 14.7257C99.559 14.6791 99.5127 14.6791 99.4663 14.6325C99.559 14.6325 99.6054 14.5859 99.6054 14.5859ZM102.807 23.44L100.765 25.2108L98.2599 24.3254L97.5176 21.2964L98.2599 17.9878L100.719 16.45L102.853 17.4286L103.781 20.2712L102.807 23.44Z" fill="#101112"/>
</svg>
